<?xml version="1.0" encoding="UTF-8" standalone="no"?>
<svg
   xmlns:dc="http://purl.org/dc/elements/1.1/"
   xmlns:cc="http://creativecommons.org/ns#"
   xmlns:rdf="http://www.w3.org/1999/02/22-rdf-syntax-ns#"
   xmlns:svg="http://www.w3.org/2000/svg"
   xmlns="http://www.w3.org/2000/svg"
   viewBox="0 0 1333.3333 933.33331"
   height="933.33331"
   width="1333.3333"
   xml:space="preserve"
   id="svg2"
   version="1.1"><metadata
     id="metadata8"><rdf:RDF><cc:Work
         rdf:about=""><dc:format>image/svg+xml</dc:format><dc:type
           rdf:resource="http://purl.org/dc/dcmitype/StillImage" /></cc:Work></rdf:RDF></metadata><defs
     id="defs6"><clipPath
       id="clipPath22"
       clipPathUnits="userSpaceOnUse"><path
         id="path20"
         d="M 0,700 H 1000 V 0 H 0 Z" /></clipPath><clipPath
       id="clipPath222"
       clipPathUnits="userSpaceOnUse"><path
         id="path220"
         d="M 0,700 H 1000 V 0 H 0 Z" /></clipPath><clipPath
       id="clipPath294"
       clipPathUnits="userSpaceOnUse"><path
         id="path292"
         d="M 0,700 H 1000 V 0 H 0 Z" /></clipPath></defs><g
     transform="matrix(1.3333333,0,0,-1.3333333,0,933.33333)"
     id="g10"><g
       transform="translate(0,344.2644)"
       id="g12"><path
         id="path14"
         style="fill:#869fb2;fill-opacity:1;fill-rule:nonzero;stroke:none"
         d="M 0,0 H 1000 Z" /></g><g
       id="g16"><g
         clip-path="url(#clipPath22)"
         id="g18"><g
           transform="translate(0,344.2646)"
           id="g24"><path
             id="path26"
             style="fill:none;stroke:#869fb2;stroke-width:3;stroke-linecap:butt;stroke-linejoin:miter;stroke-miterlimit:10;stroke-dasharray:none;stroke-opacity:1"
             d="M 0,0 H 1000" /></g><g
           transform="translate(160.061,344.5889)"
           id="g28"><path
             id="path30"
             style="fill:#eeeeee;fill-opacity:1;fill-rule:nonzero;stroke:none"
             d="m 0,0 c 0,-5.563 -5.417,-10.073 -12.1,-10.073 -6.682,0 -12.099,4.51 -12.099,10.073 0,5.564 5.417,10.074 12.099,10.074 C -5.417,10.074 0,5.564 0,0" /></g><g
           transform="translate(230.5068,362.9771)"
           id="g32"><path
             id="path34"
             style="fill:#690d1e;fill-opacity:1;fill-rule:nonzero;stroke:none"
             d="m 0,0 h -165.091 c -1.974,0 -3.575,1.601 -3.575,3.576 v 70.026 c 0,1.975 1.601,3.576 3.575,3.576 L 0,77.178 c 1.975,0 3.575,-1.601 3.575,-3.576 V 3.576 C 3.575,1.601 1.975,0 0,0" /></g><g
           transform="translate(243.1787,373.9131)"
           id="g36"><path
             id="path38"
             style="fill:#cccccc;fill-opacity:1;fill-rule:nonzero;stroke:none"
             d="m 0,0 h -190.435 c -2.044,0 -3.7,1.657 -3.7,3.701 v 233.422 c 0,2.044 1.656,3.7 3.7,3.7 H 0 c 2.044,0 3.701,-1.656 3.701,-3.7 V 3.701 C 3.701,1.657 2.044,0 0,0" /></g><g
           transform="translate(243.3066,378.293)"
           id="g40"><path
             id="path42"
             style="fill:#eeeeee;fill-opacity:1;fill-rule:nonzero;stroke:none"
             d="m 0,0 h -190.69 c -1.974,0 -3.573,1.6 -3.573,3.573 V 237.25 c 0,1.974 1.599,3.573 3.573,3.573 H 0 c 1.973,0 3.573,-1.599 3.573,-3.573 V 3.573 C 3.573,1.6 1.973,0 0,0" /></g><g
           transform="translate(119.9233,601.1431)"
           id="g44"><path
             id="path46"
             style="fill:#cccccc;fill-opacity:1;fill-rule:nonzero;stroke:none"
             d="m 0,0 h -61.776 c -5.028,0 -9.104,4.076 -9.104,9.104 v 35.858 c 0,5.028 4.076,9.103 9.104,9.103 H 0 c 5.027,0 9.104,-4.075 9.104,-9.103 V 9.104 C 9.104,4.076 5.027,0 0,0" /></g><g
           transform="translate(49.0435,628.1758)"
           id="g48"><path
             id="path50"
             style="fill:#cccccc;fill-opacity:1;fill-rule:nonzero;stroke:none"
             d="m 0,0 v -51.305 c 0,0 0.624,20.324 28.575,24.272" /></g><g
           transform="translate(118.8135,605.0576)"
           id="g52"><path
             id="path54"
             style="fill:#9b172a;fill-opacity:1;fill-rule:nonzero;stroke:none"
             d="m 0,0 h -59.557 c -5.64,0 -10.213,4.573 -10.213,10.213 v 32.132 c 0,5.641 4.573,10.214 10.213,10.214 H 0 c 5.641,0 10.213,-4.573 10.213,-10.214 V 10.213 C 10.213,4.573 5.641,0 0,0" /></g><g
           transform="translate(49.0435,631.3369)"
           id="g56"><path
             id="path58"
             style="fill:#9b172a;fill-opacity:1;fill-rule:nonzero;stroke:none"
             d="m 0,0 v -47.804 c 0,0 0.842,17.783 28.793,21.525" /></g><g
           transform="translate(136.5088,363.5288)"
           id="g60"><path
             id="path62"
             style="fill:#690d1e;fill-opacity:1;fill-rule:nonzero;stroke:none"
             d="M 0,0 11.52,-17.777 22.905,0 Z" /></g><g
           transform="translate(156.1787,344.5889)"
           id="g64"><path
             id="path66"
             style="fill:#690d1e;fill-opacity:1;fill-rule:nonzero;stroke:none"
             d="m 0,0 c 0,-3.778 -3.679,-6.841 -8.217,-6.841 -4.539,0 -8.218,3.063 -8.218,6.841 0,3.778 3.679,6.842 8.218,6.842 C -3.679,6.842 0,3.778 0,0" /></g><g
           transform="translate(461.1636,362.8853)"
           id="g68"><path
             id="path70"
             style="fill:#e8284d;fill-opacity:1;fill-rule:nonzero;stroke:none"
             d="m 0,0 h -165.229 c -1.975,0 -3.576,1.601 -3.576,3.576 v 70.026 c 0,1.975 1.601,3.576 3.576,3.576 L 0,77.178 c 1.975,0 3.576,-1.601 3.576,-3.576 V 3.576 C 3.576,1.601 1.975,0 0,0" /></g><g
           transform="translate(473.8462,373.8213)"
           id="g72"><path
             id="path74"
             style="fill:#cccccc;fill-opacity:1;fill-rule:nonzero;stroke:none"
             d="m 0,0 h -190.594 c -2.044,0 -3.701,1.657 -3.701,3.701 v 233.422 c 0,2.044 1.657,3.7 3.701,3.7 H 0 c 2.043,0 3.7,-1.656 3.7,-3.7 V 3.701 C 3.7,1.657 2.043,0 0,0" /></g><g
           transform="translate(473.9741,378.2012)"
           id="g76"><path
             id="path78"
             style="fill:#eeeeee;fill-opacity:1;fill-rule:nonzero;stroke:none"
             d="m 0,0 h -190.85 c -1.973,0 -3.573,1.6 -3.573,3.573 V 237.25 c 0,1.973 1.6,3.573 3.573,3.573 H 0 c 1.973,0 3.572,-1.6 3.572,-3.573 V 3.573 C 3.572,1.6 1.973,0 0,0" /></g><g
           transform="translate(350.6523,601.0513)"
           id="g80"><path
             id="path82"
             style="fill:#cccccc;fill-opacity:1;fill-rule:nonzero;stroke:none"
             d="m 0,0 h -61.998 c -5.027,0 -9.103,4.076 -9.103,9.104 v 35.858 c 0,5.028 4.076,9.103 9.103,9.103 H 0 c 5.028,0 9.104,-4.075 9.104,-9.103 V 9.104 C 9.104,4.076 5.028,0 0,0" /></g><g
           transform="translate(279.5513,628.084)"
           id="g84"><path
             id="path86"
             style="fill:#cccccc;fill-opacity:1;fill-rule:nonzero;stroke:none"
             d="m 0,0 v -51.305 c 0,0 0.626,20.324 28.654,24.272" /></g><g
           transform="translate(349.5425,604.9658)"
           id="g88"><path
             id="path90"
             style="fill:#ed364f;fill-opacity:1;fill-rule:nonzero;stroke:none"
             d="m 0,0 h -59.778 c -5.64,0 -10.213,4.573 -10.213,10.213 v 32.132 c 0,5.641 4.573,10.214 10.213,10.214 H 0 c 5.641,0 10.213,-4.573 10.213,-10.214 V 10.213 C 10.213,4.573 5.641,0 0,0" /></g><g
           transform="translate(279.5513,631.2451)"
           id="g92"><path
             id="path94"
             style="fill:#ed364f;fill-opacity:1;fill-rule:nonzero;stroke:none"
             d="m 0,0 v -47.804 c 0,0 0.845,17.783 28.873,21.525" /></g><g
           transform="translate(390.7251,345.6602)"
           id="g96"><path
             id="path98"
             style="fill:#eeeeee;fill-opacity:1;fill-rule:nonzero;stroke:none"
             d="m 0,0 c 0,-5.563 -5.421,-10.073 -12.109,-10.073 -6.688,0 -12.109,4.51 -12.109,10.073 0,5.563 5.421,10.073 12.109,10.073 C -5.421,10.073 0,5.563 0,0" /></g><g
           transform="translate(386.8403,345.6602)"
           id="g100"><path
             id="path102"
             style="fill:#e8284d;fill-opacity:1;fill-rule:nonzero;stroke:none"
             d="m 0,0 c 0,-3.778 -3.682,-6.842 -8.224,-6.842 -4.542,0 -8.224,3.064 -8.224,6.842 0,3.778 3.682,6.841 8.224,6.841 C -3.682,6.841 0,3.778 0,0" /></g><g
           transform="translate(367.0874,363.437)"
           id="g104"><path
             id="path106"
             style="fill:#e8284d;fill-opacity:1;fill-rule:nonzero;stroke:none"
             d="M 0,0 11.529,-17.777 22.923,0 Z" /></g><g
           transform="translate(577.4629,328.8389)"
           id="g108"><path
             id="path110"
             style="fill:#faca2d;fill-opacity:1;fill-rule:nonzero;stroke:none"
             d="m 0,0 h -165.09 c -1.975,0 -3.576,-1.601 -3.576,-3.575 v -70.027 c 0,-1.974 1.601,-3.575 3.576,-3.575 H 0 c 1.975,0 3.575,1.601 3.575,3.575 V -3.575 C 3.575,-1.601 1.975,0 0,0" /></g><g
           transform="translate(590.1348,317.9033)"
           id="g112"><path
             id="path114"
             style="fill:#cccccc;fill-opacity:1;fill-rule:nonzero;stroke:none"
             d="m 0,0 h -190.435 c -2.043,0 -3.7,-1.657 -3.7,-3.701 v -233.422 c 0,-2.043 1.657,-3.7 3.7,-3.7 H 0 c 2.044,0 3.701,1.657 3.701,3.7 V -3.701 C 3.701,-1.657 2.044,0 0,0" /></g><g
           transform="translate(590.2627,313.5234)"
           id="g116"><path
             id="path118"
             style="fill:#eeeeee;fill-opacity:1;fill-rule:nonzero;stroke:none"
             d="m 0,0 h -190.69 c -1.974,0 -3.573,-1.6 -3.573,-3.573 V -237.25 c 0,-1.974 1.599,-3.573 3.573,-3.573 H 0 c 1.974,0 3.573,1.599 3.573,3.573 V -3.573 C 3.573,-1.6 1.974,0 0,0" /></g><g
           transform="translate(466.6982,90.6729)"
           id="g120"><path
             id="path122"
             style="fill:#cccccc;fill-opacity:1;fill-rule:nonzero;stroke:none"
             d="m 0,0 h -61.595 c -5.028,0 -9.104,-4.075 -9.104,-9.104 v -35.858 c 0,-5.027 4.076,-9.103 9.104,-9.103 H 0 c 5.028,0 9.104,4.076 9.104,9.103 V -9.104 C 9.104,-4.075 5.028,0 0,0" /></g><g
           transform="translate(395.9995,63.6406)"
           id="g124"><path
             id="path126"
             style="fill:#cccccc;fill-opacity:1;fill-rule:nonzero;stroke:none"
             d="m 0,0 v 51.306 c 0,0 0.623,-20.326 28.511,-24.274" /></g><g
           transform="translate(465.5884,86.7588)"
           id="g128"><path
             id="path130"
             style="fill:#faca2d;fill-opacity:1;fill-rule:nonzero;stroke:none"
             d="m 0,0 h -59.375 c -5.641,0 -10.214,-4.573 -10.214,-10.214 v -32.132 c 0,-5.64 4.573,-10.213 10.214,-10.213 H 0 c 5.641,0 10.213,4.573 10.213,10.213 v 32.132 C 10.213,-4.573 5.641,0 0,0" /></g><g
           transform="translate(395.9995,60.4795)"
           id="g132"><path
             id="path134"
             style="fill:#faca2d;fill-opacity:1;fill-rule:nonzero;stroke:none"
             d="m 0,0 v 47.804 c 0,0 0.84,-17.783 28.729,-21.525" /></g><g
           transform="translate(507.084,346.0645)"
           id="g136"><path
             id="path138"
             style="fill:#eeeeee;fill-opacity:1;fill-rule:nonzero;stroke:none"
             d="m 0,0 c 0,5.563 -5.417,10.073 -12.099,10.073 -6.683,0 -12.1,-4.51 -12.1,-10.073 0,-5.563 5.417,-10.073 12.1,-10.073 C -5.417,-10.073 0,-5.563 0,0" /></g><g
           transform="translate(503.2021,346.0645)"
           id="g140"><path
             id="path142"
             style="fill:#faca2d;fill-opacity:1;fill-rule:nonzero;stroke:none"
             d="m 0,0 c 0,3.778 -3.679,6.841 -8.217,6.841 -4.539,0 -8.218,-3.063 -8.218,-6.841 0,-3.778 3.679,-6.842 8.218,-6.842 C -3.679,-6.842 0,-3.778 0,0" /></g><g
           transform="translate(483.4653,328.2881)"
           id="g144"><path
             id="path146"
             style="fill:#faca2d;fill-opacity:1;fill-rule:nonzero;stroke:none"
             d="M 0,0 11.52,17.776 22.905,0 Z" /></g><g
           transform="translate(690.998,362.8853)"
           id="g148"><path
             id="path150"
             style="fill:#81e9c7;fill-opacity:1;fill-rule:nonzero;stroke:none"
             d="m 0,0 h -165.229 c -1.975,0 -3.576,1.601 -3.576,3.576 v 70.026 c 0,1.975 1.601,3.576 3.576,3.576 L 0,77.178 c 1.975,0 3.575,-1.601 3.575,-3.576 V 3.576 C 3.575,1.601 1.975,0 0,0" /></g><g
           transform="translate(703.6807,373.8213)"
           id="g152"><path
             id="path154"
             style="fill:#cccccc;fill-opacity:1;fill-rule:nonzero;stroke:none"
             d="m 0,0 h -190.595 c -2.044,0 -3.7,1.657 -3.7,3.701 v 233.422 c 0,2.044 1.656,3.7 3.7,3.7 H 0 c 2.043,0 3.7,-1.656 3.7,-3.7 V 3.701 C 3.7,1.657 2.043,0 0,0" /></g><g
           transform="translate(703.8076,378.2012)"
           id="g156"><path
             id="path158"
             style="fill:#eeeeee;fill-opacity:1;fill-rule:nonzero;stroke:none"
             d="m 0,0 h -190.85 c -1.972,0 -3.572,1.6 -3.572,3.573 V 237.25 c 0,1.973 1.6,3.573 3.572,3.573 H 0 c 1.974,0 3.573,-1.6 3.573,-3.573 V 3.573 C 3.573,1.6 1.974,0 0,0" /></g><g
           transform="translate(579.9971,601.0513)"
           id="g160"><path
             id="path162"
             style="fill:#cccccc;fill-opacity:1;fill-rule:nonzero;stroke:none"
             d="m 0,0 h -61.508 c -5.028,0 -9.103,4.076 -9.103,9.104 v 35.858 c 0,5.028 4.075,9.103 9.103,9.103 H 0 c 5.028,0 9.104,-4.075 9.104,-9.103 V 9.104 C 9.104,4.076 5.028,0 0,0" /></g><g
           transform="translate(509.3857,628.084)"
           id="g164"><path
             id="path166"
             style="fill:#cccccc;fill-opacity:1;fill-rule:nonzero;stroke:none"
             d="m 0,0 v -51.305 c 0,0 0.622,20.324 28.479,24.272" /></g><g
           transform="translate(578.8877,604.9658)"
           id="g168"><path
             id="path170"
             style="fill:#81e9c7;fill-opacity:1;fill-rule:nonzero;stroke:none"
             d="m 0,0 h -59.289 c -5.641,0 -10.213,4.573 -10.213,10.213 v 32.132 c 0,5.641 4.572,10.214 10.213,10.214 H 0 c 5.641,0 10.213,-4.573 10.213,-10.214 V 10.213 C 10.213,4.573 5.641,0 0,0" /></g><g
           transform="translate(509.3857,631.2451)"
           id="g172"><path
             id="path174"
             style="fill:#81e9c7;fill-opacity:1;fill-rule:nonzero;stroke:none"
             d="m 0,0 v -47.804 c 0,0 0.839,17.783 28.696,21.525" /></g><g
           transform="translate(620.5596,345.6602)"
           id="g176"><path
             id="path178"
             style="fill:#eeeeee;fill-opacity:1;fill-rule:nonzero;stroke:none"
             d="m 0,0 c 0,-5.563 -5.422,-10.073 -12.109,-10.073 -6.688,0 -12.11,4.51 -12.11,10.073 0,5.563 5.422,10.073 12.11,10.073 C -5.422,10.073 0,5.563 0,0" /></g><g
           transform="translate(616.6738,345.6602)"
           id="g180"><path
             id="path182"
             style="fill:#81e9c7;fill-opacity:1;fill-rule:nonzero;stroke:none"
             d="m 0,0 c 0,-3.778 -3.682,-6.842 -8.224,-6.842 -4.542,0 -8.224,3.064 -8.224,6.842 0,3.778 3.682,6.841 8.224,6.841 C -3.682,6.841 0,3.778 0,0" /></g><g
           transform="translate(596.9209,363.437)"
           id="g184"><path
             id="path186"
             style="fill:#81e9c7;fill-opacity:1;fill-rule:nonzero;stroke:none"
             d="M 0,0 11.529,-17.777 22.924,0 Z" /></g></g></g><text
       id="text190"
       style="font-variant:normal;font-weight:500;font-stretch:normal;font-size:22px;font-family:'Prompt Medium';-inkscape-font-specification:Prompt-Medium;writing-mode:lr-tb;fill:#9b172a;fill-opacity:1;fill-rule:nonzero;stroke:none"
       transform="matrix(1,0,0,-1,86.5693,566.7925)"><tspan
         id="tspan188"
         y="0"
         x="0 15.532 21.318001 34.012001 48.641998 61.729801 75.303802 85.951797 94.487801 100.2738 111.9998">Diagnóstico</tspan></text>
<text
       id="text214"
       style="font-variant:normal;font-weight:normal;font-stretch:normal;font-size:18px;font-family:'Nunito Sans';-inkscape-font-specification:NunitoSans-Regular;writing-mode:lr-tb;fill:#000000;fill-opacity:1;fill-rule:nonzero;stroke:none"
       transform="matrix(1,0,0,-1,109.7979,530.8271)"><tspan
         id="tspan192"
         y="0"
         x="0 4.6079998 15.084 24.57 34.793999 40.914001 45.09 55.152 63.773998 73.314003 79.667999">Identiﬁcar </tspan><tspan
         id="tspan194"
         y="21.6"
         x="-16.74 -6.5159998 2.97 11.592 21.077999 29.718 33.894001 44.369999 53.91 64.386002 73.872002 82.512001 87.155998 96.407997">necesidades y </tspan><tspan
         id="tspan196"
         y="43.200001"
         x="-20.285999 -14.112 -4.6259999 5.8499999 15.948 25.434 31.788 35.964001 51.299999 55.476002 64.961998 75.185997 81.306 91.295998 99.935997">requerimientos </tspan><tspan
         id="tspan198"
         y="64.800003"
         x="-16.452 -6.9660001 1.674 12.15 21.636 30.257999 34.433998 44.495998 53.118 63.108002 71.748001 76.391998 85.877998 96.101997">especíﬁcos en </tspan><tspan
         id="tspan200"
         y="86.400002"
         x="9.54 24.875999 34.416 40.535999 50.021999 56.375999 60.551998 70.092003">materia </tspan><tspan
         id="tspan202"
         y="108"
         x="1.836 7.6500001 17.639999 23.993999 39.330002 48.869999 54.990002 59.166 68.255997">formativa</tspan><tspan
         id="tspan204"
         y="-5.3099999"
         x="198.864 212.166 221.634 231.696 241.92 246.09599 252.45 257.09399 266.57999 270.75601 275.39999 284.94 289.116 297.73801 307.27802 317.50201 326.12399 335.60999">Deﬁnir el alcance </tspan><tspan
         id="tspan206"
         y="16.290001"
         x="213.894 224.37 233.856 238.032 242.67599 253.15199 259.32779 269.31781 279.86581 286.1478 295.68781 311.0238 320.56381">del programa </tspan><tspan
         id="tspan208"
         y="37.889999"
         x="202.48199 211.104 221.09399 231.31799 235.96201 242.136 251.62199 260.26199 270.73801 280.224 288.86221 294.98221 304.9722 309.61621 313.79221 323.33221 331.9722">con respecto las </tspan><tspan
         id="tspan210"
         y="59.490002"
         x="210.65401 220.87801 230.364 238.98599 248.472 257.112 261.28799 271.76401 281.30399 291.78 301.26599 309.90601 314.54999 323.802">necesidades y </tspan><tspan
         id="tspan212"
         y="81.089996"
         x="207.108 213.282 222.76801 233.244 243.342 252.828 259.18201 263.358 278.694 282.87 292.35599 302.57999 308.70001 318.69">requerimientos</tspan></text>
<g
       id="g216"><g
         clip-path="url(#clipPath222)"
         id="g218"><g
           transform="translate(346.877,328.6846)"
           id="g224"><path
             id="path226"
             style="fill:#be1e2e;fill-opacity:1;fill-rule:nonzero;stroke:none"
             d="m 0,0 h -165.09 c -1.975,0 -3.576,-1.601 -3.576,-3.575 v -70.028 c 0,-1.974 1.601,-3.575 3.576,-3.575 H 0 c 1.975,0 3.576,1.601 3.576,3.575 V -3.575 C 3.576,-1.601 1.975,0 0,0" /></g><g
           transform="translate(359.5493,317.748)"
           id="g228"><path
             id="path230"
             style="fill:#cccccc;fill-opacity:1;fill-rule:nonzero;stroke:none"
             d="m 0,0 h -190.435 c -2.044,0 -3.7,-1.656 -3.7,-3.7 v -233.422 c 0,-2.044 1.656,-3.7 3.7,-3.7 H 0 c 2.044,0 3.701,1.656 3.701,3.7 V -3.7 C 3.701,-1.656 2.044,0 0,0" /></g><g
           transform="translate(359.6772,313.3691)"
           id="g232"><path
             id="path234"
             style="fill:#eeeeee;fill-opacity:1;fill-rule:nonzero;stroke:none"
             d="m 0,0 h -190.691 c -1.973,0 -3.572,-1.6 -3.572,-3.573 v -233.678 c 0,-1.973 1.599,-3.572 3.572,-3.572 H 0 c 1.973,0 3.573,1.599 3.573,3.572 V -3.573 C 3.573,-1.6 1.973,0 0,0" /></g><g
           transform="translate(236.1851,90.5186)"
           id="g236"><path
             id="path238"
             style="fill:#cccccc;fill-opacity:1;fill-rule:nonzero;stroke:none"
             d="m 0,0 h -61.667 c -5.028,0 -9.104,-4.076 -9.104,-9.104 v -35.858 c 0,-5.027 4.076,-9.103 9.104,-9.103 H 0 c 5.028,0 9.104,4.076 9.104,9.103 V -9.104 C 9.104,-4.076 5.028,0 0,0" /></g><g
           transform="translate(165.4141,63.4854)"
           id="g240"><path
             id="path242"
             style="fill:#cccccc;fill-opacity:1;fill-rule:nonzero;stroke:none"
             d="m 0,0 v 51.306 c 0,0 0.623,-20.325 28.536,-24.273" /></g><g
           transform="translate(235.0752,86.6045)"
           id="g244"><path
             id="path246"
             style="fill:#be1e2e;fill-opacity:1;fill-rule:nonzero;stroke:none"
             d="m 0,0 h -59.448 c -5.64,0 -10.213,-4.573 -10.213,-10.214 v -32.132 c 0,-5.64 4.573,-10.214 10.213,-10.214 H 0 c 5.641,0 10.213,4.574 10.213,10.214 v 32.132 C 10.213,-4.573 5.641,0 0,0" /></g><g
           transform="translate(165.4141,60.3242)"
           id="g248"><path
             id="path250"
             style="fill:#be1e2e;fill-opacity:1;fill-rule:nonzero;stroke:none"
             d="m 0,0 v 47.805 c 0,0 0.841,-17.784 28.754,-21.525" /></g><g
           transform="translate(276.4985,345.9102)"
           id="g252"><path
             id="path254"
             style="fill:#eeeeee;fill-opacity:1;fill-rule:nonzero;stroke:none"
             d="m 0,0 c 0,5.563 -5.417,10.073 -12.1,10.073 -6.682,0 -12.099,-4.51 -12.099,-10.073 0,-5.563 5.417,-10.074 12.099,-10.074 C -5.417,-10.074 0,-5.563 0,0" /></g><g
           transform="translate(272.6162,345.9102)"
           id="g256"><path
             id="path258"
             style="fill:#be1e2e;fill-opacity:1;fill-rule:nonzero;stroke:none"
             d="m 0,0 c 0,3.778 -3.679,6.841 -8.217,6.841 -4.539,0 -8.218,-3.063 -8.218,-6.841 0,-3.779 3.679,-6.842 8.218,-6.842 C -3.679,-6.842 0,-3.779 0,0" /></g><g
           transform="translate(252.8794,328.1328)"
           id="g260"><path
             id="path262"
             style="fill:#be1e2e;fill-opacity:1;fill-rule:nonzero;stroke:none"
             d="M 0,0 11.52,17.777 22.905,0 Z" /></g></g></g><text
       id="text286"
       style="font-variant:normal;font-weight:normal;font-stretch:normal;font-size:18px;font-family:'Nunito Sans';-inkscape-font-specification:NunitoSans-Regular;writing-mode:lr-tb;fill:#000000;fill-opacity:1;fill-rule:nonzero;stroke:none"
       transform="matrix(1,0,0,-1,416.1055,234.4678)"><tspan
         id="tspan264"
         y="0"
         x="0 13.302 22.77 32.832001 43.056 47.231998 53.585999 58.23 62.405998 72.396004 81.036003 85.68 91.853996 101.34 109.962 120.06 126.324 134.964 144.95399 153.504 157.62601">Deﬁnir los recursos, </tspan><tspan
         id="tspan266"
         y="21.6"
         x="23.813999 29.988001 39.473999 48.113998 58.59 68.580002 78.804001 87.444 96.984001 107.46 111.636 121.122 129.672 133.79401">responsables, </tspan><tspan
         id="tspan268"
         y="43.200001"
         x="26.604 36.144001 44.784 50.903999 55.080002 64.332001 68.508003 78.984001 88.524002 99 108.486 117.126 121.77 131.022">actividades y </tspan><tspan
         id="tspan270"
         y="64.800003"
         x="20.898001 29.52 39.060001 43.236 52.722 62.945999 73.421997 82.961998 89.316002 93.491997 103.482 112.122 116.766 127.242 136.728">calendarios de </tspan><tspan
         id="tspan272"
         y="86.400002"
         x="41.363998 50.849998 55.026001 64.512001 73.134003 83.232002 91.853996 96.029999 106.02">ejecución</tspan><tspan
         id="tspan274"
         y="-301.12201"
         x="149.778 161.784 171.774 181.998 192.06 202.608 212.70599 218.98801 228.528 234.882">Conﬁgurar </tspan><tspan
         id="tspan276"
         y="-279.522"
         x="105.768 111.942 121.428 130.05 140.14799 146.412 155.052 165.04201 173.68201 178.326 184.446 193.93201 202.554 212.778 222.76801 226.944 236.93401 247.48199 251.658 260.28 270.26999 278.91">recursos tecnológicos </tspan><tspan
         id="tspan278"
         y="-257.922"
         x="140.814 150.06599 154.71001 160.5222 170.51221 176.8662 192.20219 201.7422 207.8622 212.03819 221.18221 231.1722 239.7222 243.84419">y formativos, </tspan><tspan
         id="tspan280"
         y="-236.32201"
         x="148.896 157.51801 167.058 177.534 187.07401 195.696 199.87199 205.992 215.532 221.886 226.53 235.782">capacitar y </tspan><tspan
         id="tspan282"
         y="-214.722"
         x="109.296 118.782 134.118 144.59399 154.584 165.06 174.54601 180.828 190.368 196.722 201.366 210.90601 215.082 219.726 225.84599 235.386 239.562 249.048 259.272 265.392 275.38199">empoderar al talento </tspan><tspan
         id="tspan284"
         y="-193.12199"
         x="159.62399 169.84801 179.946 195.282 204.82201 215.04601">humano</tspan></text>
<g
       id="g288"><g
         clip-path="url(#clipPath294)"
         id="g290"><g
           transform="translate(807.9707,328.8965)"
           id="g296"><path
             id="path298"
             style="fill:#2ec5b6;fill-opacity:1;fill-rule:nonzero;stroke:none"
             d="m 0,0 h -165.09 c -1.974,0 -3.576,-1.601 -3.576,-3.575 v -70.027 c 0,-1.974 1.602,-3.576 3.576,-3.576 H 0 c 1.975,0 3.576,1.602 3.576,3.576 V -3.575 C 3.576,-1.601 1.975,0 0,0" /></g><g
           transform="translate(820.6436,317.9609)"
           id="g300"><path
             id="path302"
             style="fill:#cccccc;fill-opacity:1;fill-rule:nonzero;stroke:none"
             d="m 0,0 h -190.436 c -2.043,0 -3.7,-1.657 -3.7,-3.701 v -233.422 c 0,-2.044 1.657,-3.7 3.7,-3.7 H 0 c 2.043,0 3.7,1.656 3.7,3.7 V -3.701 C 3.7,-1.657 2.043,0 0,0" /></g><g
           transform="translate(820.7715,313.5811)"
           id="g304"><path
             id="path306"
             style="fill:#eeeeee;fill-opacity:1;fill-rule:nonzero;stroke:none"
             d="m 0,0 h -190.691 c -1.973,0 -3.573,-1.6 -3.573,-3.573 v -233.678 c 0,-1.973 1.6,-3.572 3.573,-3.572 H 0 c 1.973,0 3.572,1.599 3.572,3.572 V -3.573 C 3.572,-1.6 1.973,0 0,0" /></g><g
           transform="translate(697.291,90.7305)"
           id="g308"><path
             id="path310"
             style="fill:#cccccc;fill-opacity:1;fill-rule:nonzero;stroke:none"
             d="m 0,0 h -61.68 c -5.027,0 -9.103,-4.076 -9.103,-9.104 v -35.858 c 0,-5.027 4.076,-9.103 9.103,-9.103 H 0 c 5.028,0 9.104,4.076 9.104,9.103 V -9.104 C 9.104,-4.076 5.028,0 0,0" /></g><g
           transform="translate(626.5078,63.6982)"
           id="g312"><path
             id="path314"
             style="fill:#cccccc;fill-opacity:1;fill-rule:nonzero;stroke:none"
             d="m 0,0 v 51.305 c 0,0 0.623,-20.325 28.541,-24.273" /></g><g
           transform="translate(696.1816,86.8164)"
           id="g316"><path
             id="path318"
             style="fill:#2ec5b6;fill-opacity:1;fill-rule:nonzero;stroke:none"
             d="m 0,0 h -59.461 c -5.641,0 -10.213,-4.573 -10.213,-10.214 v -32.132 c 0,-5.64 4.572,-10.213 10.213,-10.213 H 0 c 5.641,0 10.213,4.573 10.213,10.213 v 32.132 C 10.213,-4.573 5.641,0 0,0" /></g><g
           transform="translate(626.5078,60.5371)"
           id="g320"><path
             id="path322"
             style="fill:#2ec5b6;fill-opacity:1;fill-rule:nonzero;stroke:none"
             d="m 0,0 v 47.804 c 0,0 0.841,-17.783 28.759,-21.525" /></g><g
           transform="translate(737.5254,345.6953)"
           id="g324"><path
             id="path326"
             style="fill:#eeeeee;fill-opacity:1;fill-rule:nonzero;stroke:none"
             d="m 0,0 c 0,5.563 -5.417,10.074 -12.1,10.074 -6.682,0 -12.099,-4.511 -12.099,-10.074 0,-5.563 5.417,-10.073 12.099,-10.073 6.683,0 12.1,4.51 12.1,10.073" /></g><g
           transform="translate(733.6436,345.6953)"
           id="g328"><path
             id="path330"
             style="fill:#2ec5b6;fill-opacity:1;fill-rule:nonzero;stroke:none"
             d="m 0,0 c 0,3.779 -3.68,6.842 -8.218,6.842 -4.538,0 -8.218,-3.063 -8.218,-6.842 0,-3.778 3.68,-6.841 8.218,-6.841 C -3.68,-6.841 0,-3.778 0,0" /></g><g
           transform="translate(713.9736,328.3447)"
           id="g332"><path
             id="path334"
             style="fill:#2ec5b6;fill-opacity:1;fill-rule:nonzero;stroke:none"
             d="M 0,0 11.52,17.777 22.904,0 Z" /></g><g
           transform="translate(920.4346,362.9639)"
           id="g336"><path
             id="path338"
             style="fill:#229386;fill-opacity:1;fill-rule:nonzero;stroke:none"
             d="m 0,0 h -164.316 c -1.975,0 -3.576,1.601 -3.576,3.576 v 70.026 c 0,1.975 1.601,3.576 3.576,3.576 L 0,77.178 c 1.975,0 3.575,-1.601 3.575,-3.576 V 3.576 C 3.575,1.601 1.975,0 0,0" /></g><g
           transform="translate(933.0488,373.8999)"
           id="g340"><path
             id="path342"
             style="fill:#cccccc;fill-opacity:1;fill-rule:nonzero;stroke:none"
             d="m 0,0 h -189.545 c -2.044,0 -3.701,1.657 -3.701,3.701 v 233.422 c 0,2.044 1.657,3.7 3.701,3.7 H 0 c 2.044,0 3.701,-1.656 3.701,-3.7 V 3.701 C 3.701,1.657 2.044,0 0,0" /></g><g
           transform="translate(933.1768,378.2798)"
           id="g344"><path
             id="path346"
             style="fill:#eeeeee;fill-opacity:1;fill-rule:nonzero;stroke:none"
             d="m 0,0 h -189.801 c -1.973,0 -3.573,1.6 -3.573,3.573 V 237.25 c 0,1.974 1.6,3.573 3.573,3.573 H 0 c 1.974,0 3.573,-1.599 3.573,-3.573 V 3.573 C 3.573,1.6 1.974,0 0,0" /></g><g
           transform="translate(810.4971,601.1299)"
           id="g348"><path
             id="path350"
             style="fill:#cccccc;fill-opacity:1;fill-rule:nonzero;stroke:none"
             d="m 0,0 h -61.591 c -5.027,0 -9.103,4.076 -9.103,9.104 v 35.858 c 0,5.028 4.076,9.103 9.103,9.103 H 0 c 5.027,0 9.104,-4.075 9.104,-9.103 V 9.104 C 9.104,4.076 5.027,0 0,0" /></g><g
           transform="translate(739.8027,628.1626)"
           id="g352"><path
             id="path354"
             style="fill:#cccccc;fill-opacity:1;fill-rule:nonzero;stroke:none"
             d="m 0,0 v -51.305 c 0,0 0.623,20.324 28.509,24.272" /></g><g
           transform="translate(809.3867,605.0444)"
           id="g356"><path
             id="path358"
             style="fill:#229386;fill-opacity:1;fill-rule:nonzero;stroke:none"
             d="m 0,0 h -59.37 c -5.641,0 -10.214,4.573 -10.214,10.213 v 32.132 c 0,5.641 4.573,10.214 10.214,10.214 H 0 c 5.641,0 10.214,-4.573 10.214,-10.214 V 10.213 C 10.214,4.573 5.641,0 0,0" /></g><g
           transform="translate(739.8027,631.3237)"
           id="g360"><path
             id="path362"
             style="fill:#229386;fill-opacity:1;fill-rule:nonzero;stroke:none"
             d="m 0,0 v -47.804 c 0,0 0.841,17.783 28.727,21.525" /></g><g
           transform="translate(850.3887,345.7383)"
           id="g364"><path
             id="path366"
             style="fill:#eeeeee;fill-opacity:1;fill-rule:nonzero;stroke:none"
             d="m 0,0 c 0,-5.562 -5.394,-10.073 -12.046,-10.073 -6.652,0 -12.045,4.511 -12.045,10.073 0,5.564 5.393,10.074 12.045,10.074 C -5.394,10.074 0,5.564 0,0" /></g><g
           transform="translate(846.5234,345.7383)"
           id="g368"><path
             id="path370"
             style="fill:#229386;fill-opacity:1;fill-rule:nonzero;stroke:none"
             d="m 0,0 c 0,-3.778 -3.662,-6.841 -8.181,-6.841 -4.517,0 -8.18,3.063 -8.18,6.841 0,3.779 3.663,6.842 8.18,6.842 C -3.662,6.842 0,3.779 0,0" /></g><g
           transform="translate(826.875,363.5156)"
           id="g372"><path
             id="path374"
             style="fill:#229386;fill-opacity:1;fill-rule:nonzero;stroke:none"
             d="M 0,0 11.468,-17.777 22.803,0 Z" /></g></g></g><text
       id="text380"
       style="font-variant:normal;font-weight:500;font-stretch:normal;font-size:22px;font-family:'Prompt Medium';-inkscape-font-specification:Prompt-Medium;writing-mode:lr-tb;fill:#ed364f;fill-opacity:1;fill-rule:nonzero;stroke:none"
       transform="matrix(1,0,0,-1,203.415,272.3691)"><tspan
         id="tspan376"
         y="0"
         x="0 9.9659996 22.219999 34.276001 42.812 48.598 63.228001 69.014 74.426003 80.211998 94.512001 107.206">Factibilidad</tspan><tspan
         id="tspan378"
         y="-294.42599"
         x="118.998 135.76199 141.174 146.96001 160.38 173.778 186.032 198.088 203.87399 217.998">Alineación</tspan></text>
<text
       id="text384"
       style="font-variant:normal;font-weight:500;font-stretch:normal;font-size:22px;font-family:'Prompt Medium';-inkscape-font-specification:Prompt-Medium;writing-mode:lr-tb;fill:#eaa800;fill-opacity:1;fill-rule:nonzero;stroke:none"
       transform="matrix(1,0,0,-1,427.903,272.5231)"><tspan
         id="tspan382"
         y="0"
         x="0 13.508 18.92 31.614 45.034 50.82 64.459999 76.405998 88.660004 100.716 106.502 120.626">Planiﬁcación</tspan></text>
<text
       id="text392"
       style="font-variant:normal;font-weight:500;font-stretch:normal;font-size:22px;font-family:'Prompt Medium';-inkscape-font-specification:Prompt-Medium;writing-mode:lr-tb;fill:#229386;fill-opacity:1;fill-rule:nonzero;stroke:none"
       transform="matrix(1,0,0,-1,523.515,565.8931)"><tspan
         id="tspan386"
         y="0"
         x="0 5.434 24.618 39.248001 44.66 58.057999 77.241997 90.639999 104.06 112.266 124.52 136.576 142.362 156.48599">Implementación</tspan><tspan
         id="tspan388"
         y="295.306"
         x="133.01199 144.84801 157.54201 170.96201 181.43179 194.12579 213.3098 219.09579 232.4938 245.9138 254.3398 268.46381">Lanzamiento </tspan><tspan
         id="tspan390"
         y="4.928"
         x="222.75 237.688 251.812 265.23199 273.76801 282.392 296.51599 301.92801 309.84799 323.048 330.96799 350.15201 363.54999 369.20401 383.328 391.28979">Control y mejora</tspan></text>
<text
       id="text408"
       style="font-variant:normal;font-weight:800;font-stretch:normal;font-size:30px;font-family:'Open Sans Extrabold';-inkscape-font-specification:OpenSans-Extrabold;writing-mode:lr-tb;fill:#ffffff;fill-opacity:1;fill-rule:nonzero;stroke:none"
       transform="matrix(1,0,0,-1,80.2461,623.0488)"><tspan
         id="tspan394"
         y="0"
         x="0">1</tspan><tspan
         id="tspan396"
         y="572.13"
         x="115.5">2</tspan><tspan
         id="tspan398"
         y="0.50999999"
         x="232.02">3</tspan><tspan
         id="tspan400"
         y="570.33002"
         x="347.57999">4</tspan><tspan
         id="tspan402"
         y="0.81"
         x="462.92999">5</tspan><tspan
         id="tspan404"
         y="571.59003"
         x="578.37">6</tspan><tspan
         id="tspan406"
         y="0.12"
         x="693.39001">7</tspan></text>
<text
       id="text446"
       style="font-variant:normal;font-weight:normal;font-stretch:normal;font-size:18px;font-family:'Nunito Sans';-inkscape-font-specification:NunitoSans-Regular;writing-mode:lr-tb;fill:#000000;fill-opacity:1;fill-rule:nonzero;stroke:none"
       transform="matrix(1,0,0,-1,801.0449,524.4771)"><tspan
         id="tspan410"
         y="0"
         x="0 12.348 21.834 30.455999 40.445999 50.922001 55.098 59.273998 68.814003 75.167999">Recopilar </tspan><tspan
         id="tspan412"
         y="21.6"
         x="-21.941999 -17.766001 -7.5419998 -1.7298 8.2601995 14.6142 29.950199 39.4902 48.112202 52.2882 62.278198 72.502197 77.146202 87.6222 97.1082">información de </tspan><tspan
         id="tspan414"
         y="43.200001"
         x="-15.984 -11.808 -2.2679999 2.3759999 11.862 16.038 25.524 34.146 44.243999 52.866001 57.042 67.031998 77.255997 81.900002 91.152">la ejecución y </tspan><tspan
         id="tspan416"
         y="64.800003"
         x="-41.796001 -32.256001 -21.780001 -17.604 -13.428 -4.8060002 4.7340002 11.088 15.732 24.354 34.344002 40.698002 46.872002 56.358002 64.998001 71.117996 75.293999 84.438004 94.428001 103.068 107.712 116.964">aplicar correctivos y </tspan><tspan
         id="tspan418"
         y="86.400002"
         x="-39.096001 -29.556 -20.934 -12.312 -8.1359997 1.854 12.078 21.563999 30.204 34.848 45.324001 54.810001 59.453999 74.790001 84.276001 88.452003 98.442001 104.724 114.264">acciones de mejora </tspan><tspan
         id="tspan420"
         y="108"
         x="3.0780001 11.7 21.690001 31.914 38.034 42.209999 52.433998 62.532001">continua</tspan><tspan
         id="tspan422"
         y="292.15799"
         x="-108.954 -104.346 -94.122002 -88.307999 -78.318001 -71.963997 -56.627998 -47.088001 -41.1138 -36.991798">Informar, </tspan><tspan
         id="tspan424"
         y="313.758"
         x="-128.16 -119.538 -109.548 -99.323997 -90.702003 -86.526001 -77.040001 -66.816002 -60.695999 -56.52 -47.556 -38.015999 -31.662001 -27.018 -17.766001">concientizar y </tspan><tspan
         id="tspan426"
         y="335.358"
         x="-137.12399 -121.788 -111.816 -105.696 -101.52 -92.43 -82.889999 -76.536003 -71.891998 -63.251999 -53.262001 -42.785999 -36.612 -27.125999 -22.482 -12.996 -8.8199997">motivar sobre el </tspan><tspan
         id="tspan428"
         y="356.95801"
         x="-117.468 -107.928 -103.752 -95.129997 -85.589996 -75.365997 -66.744003 -57.257999 -52.613998 -42.138 -32.652 -28.476">alcance del </tspan><tspan
         id="tspan430"
         y="378.55801"
         x="-134.87399 -124.398 -118.224 -108.234 -97.685997 -91.4058 -81.865799 -66.5298 -56.989799 -52.345798 -43.0938 -38.449799 -29.809799 -19.7118 -11.0718">programa y sus </tspan><tspan
         id="tspan432"
         y="400.15799"
         x="-113.544 -103.068 -93.582001 -83.358002 -73.889999 -63.827999 -55.206001 -51.029999 -41.040001">beneﬁcios</tspan><tspan
         id="tspan434"
         y="282.00601"
         x="-617.54401 -606.11401 -596.57397 -592.39801 -582.40802 -576.12598 -566.586 -560.23199 -555.58801 -551.41199 -541.87201 -537.22803 -528.60602 -519.06598 -508.59 -499.04999 -490.42801 -486.25201 -475.776 -466.23599 -455.76001">Valorar la capacidad </tspan><tspan
         id="tspan436"
         y="303.60599"
         x="-571.19397 -560.96997 -550.87201 -535.53601 -525.99597 -515.77197 -506.23199 -502.10999">humana, </tspan><tspan
         id="tspan438"
         y="325.20599"
         x="-607.086 -600.966 -591.47998 -582.85797 -572.63397 -562.37402 -554.67181 -546.0318 -536.04181 -527.4198 -523.24377 -513.25378 -509.07779 -499.0878 -488.53979 -484.3638 -475.74179">tecno-sociológica</tspan><tspan
         id="tspan440"
         y="346.806"
         x="-588.90601 -584.26202 -575.01001 -570.36603 -560.88 -552.258 -542.26801 -532.04401 -522.05402 -506.71799 -502.54199 -493.92001 -484.38"> y económica </tspan><tspan
         id="tspan442"
         y="368.40601"
         x="-563.742 -553.26599 -543.72601 -537.44397 -527.90399 -523.26001 -519.08398 -509.54401">para la </tspan><tspan
         id="tspan444"
         y="390.00601"
         x="-600.31799 -596.14203 -580.80603 -570.33002 -566.15399 -556.66803 -541.33197 -531.84601 -521.62201 -515.50201 -505.96201 -497.34 -493.164 -483.17401">implementación</tspan></text>
</g></svg>