<svg id="Layer_1" data-name="Layer 1" xmlns="http://www.w3.org/2000/svg" viewBox="0 0 500 350"><defs><style>.cls-1{fill:#879fb1;stroke:#879fb1;stroke-miterlimit:10;stroke-width:2px;}.cls-2{fill:#eee;}.cls-3{fill:#680f20;}.cls-4{fill:#ccc;}.cls-10,.cls-5{fill:#991a2d;}.cls-6{fill:#e52c50;}.cls-16,.cls-7{fill:#ea3953;}.cls-8{fill:#f9c941;}.cls-9{fill:#85e8c7;}.cls-10,.cls-15,.cls-16,.cls-17,.cls-18,.cls-19,.cls-20{font-size:11px;}.cls-10,.cls-11,.cls-15,.cls-16,.cls-17,.cls-18,.cls-19,.cls-20{font-family:Nunito, Prompt;font-weight:300;}.cls-11{font-size:9px;}.cls-12,.cls-15{fill:#bc2132;}.cls-13,.cls-19{fill:#39c4b6;}.cls-14,.cls-20{fill:#2a9386;}.cls-17{fill:#e8a705;}.cls-18{fill:#6db597;}.cls-21{font-size:17px;fill:#fff;font-family:Nunito, Prompt;font-weight:700;}</style></defs><line class="cls-1" y1="175.18" x2="500" y2="175.18"/><ellipse class="cls-2" cx="73.98" cy="175.02" rx="6.05" ry="5.04"/><rect class="cls-3" x="30.92" y="127.24" width="86.12" height="38.59" rx="3.58"/><rect class="cls-4" x="24.52" y="39.94" width="98.92" height="120.41" rx="3.7"/><rect class="cls-2" x="24.52" y="37.75" width="98.92" height="120.41" rx="3.57"/><rect class="cls-4" x="24.52" y="19.71" width="39.99" height="27.03" rx="9.1"/><path class="cls-4" d="M24.52,33.22V58.88s.31-10.16,14.29-12.14"/><rect class="cls-5" x="24.52" y="18.5" width="39.99" height="26.28" rx="10.21"/><path class="cls-5" d="M24.52,31.64V55.55s.42-8.9,14.4-10.77"/><polygon class="cls-3" points="68.25 165.55 74.01 174.44 79.71 165.55 68.25 165.55"/><ellipse class="cls-3" cx="73.98" cy="175.02" rx="4.11" ry="3.42"/><rect class="cls-6" x="146.18" y="127.28" width="86.19" height="38.59" rx="3.58"/><rect class="cls-4" x="139.78" y="39.99" width="99" height="120.41" rx="3.7"/><rect class="cls-2" x="139.78" y="37.8" width="99" height="120.41" rx="3.57"/><rect class="cls-4" x="139.78" y="19.75" width="40.1" height="27.03" rx="9.1"/><path class="cls-4" d="M139.78,33.27V58.92s.31-10.16,14.32-12.13"/><rect class="cls-7" x="139.78" y="18.55" width="40.1" height="26.28" rx="10.21"/><path class="cls-7" d="M139.78,31.69v23.9s.42-8.89,14.43-10.76"/><ellipse class="cls-2" cx="189.31" cy="174.48" rx="6.05" ry="5.04"/><ellipse class="cls-6" cx="189.31" cy="174.48" rx="4.11" ry="3.42"/><polygon class="cls-6" points="183.54 165.59 189.31 174.48 195 165.59 183.54 165.59"/><rect class="cls-8" x="204.4" y="182.89" width="86.12" height="38.59" rx="3.58"/><rect class="cls-4" x="198" y="188.36" width="98.92" height="120.41" rx="3.7"/><rect class="cls-2" x="198" y="190.55" width="98.92" height="120.41" rx="3.57"/><rect class="cls-4" x="198" y="301.98" width="39.9" height="27.03" rx="9.1"/><path class="cls-4" d="M198,315.49V289.84S198.31,300,212.26,302"/><rect class="cls-8" x="198" y="303.93" width="39.9" height="26.28" rx="10.21"/><path class="cls-8" d="M198,317.07v-23.9s.42,8.89,14.36,10.76"/><ellipse class="cls-2" cx="247.49" cy="174.28" rx="6.05" ry="5.04"/><ellipse class="cls-8" cx="247.49" cy="174.28" rx="4.11" ry="3.42"/><polygon class="cls-8" points="241.73 183.17 247.49 174.28 253.19 183.17 241.73 183.17"/><rect class="cls-9" x="261.1" y="127.28" width="86.19" height="38.59" rx="3.58"/><rect class="cls-4" x="254.69" y="39.99" width="99" height="120.41" rx="3.7"/><rect class="cls-2" x="254.69" y="37.8" width="99" height="120.41" rx="3.57"/><rect class="cls-4" x="254.69" y="19.75" width="39.86" height="27.03" rx="9.1"/><path class="cls-4" d="M254.69,33.27V58.92s.31-10.16,14.24-12.13"/><rect class="cls-9" x="254.69" y="18.55" width="39.86" height="26.28" rx="10.21"/><path class="cls-9" d="M254.69,31.69v23.9s.42-8.89,14.35-10.76"/><ellipse class="cls-2" cx="304.23" cy="174.48" rx="6.05" ry="5.04"/><ellipse class="cls-9" cx="304.23" cy="174.48" rx="4.11" ry="3.42"/><polygon class="cls-9" points="298.46 165.59 304.23 174.48 309.92 165.59 298.46 165.59"/><text class="cls-10" transform="translate(43.69 64.15)">Diagnóstico</text><text class="cls-11" transform="translate(52.5 82.39)">Identificar <tspan x="-7.98" y="10.8">necesidades y </tspan><tspan x="-11.38" y="21.6">requerimientos </tspan><tspan x="-8.02" y="32.4">específicos en </tspan><tspan x="5.24" y="43.2">materia </tspan><tspan x="1.04" y="54">formativa</tspan></text><text class="cls-11" transform="translate(168.67 79.74)">Definir el <tspan x="-4.35" y="10.8">alcance del </tspan><tspan x="-10.61" y="21.6">programa con </tspan><tspan x="-6.24" y="32.4">respecto las </tspan><tspan x="-10.45" y="43.2">necesidades y </tspan><tspan x="-13.84" y="54">requerimientos</tspan></text><rect class="cls-12" x="89.11" y="182.97" width="86.12" height="38.59" rx="3.58"/><rect class="cls-4" x="82.71" y="188.44" width="98.92" height="120.41" rx="3.7"/><rect class="cls-2" x="82.71" y="190.63" width="98.92" height="120.41" rx="3.57"/><rect class="cls-4" x="82.71" y="302.05" width="39.94" height="27.03" rx="9.1"/><path class="cls-4" d="M82.71,315.57V289.92S83,300.08,97,302.05"/><rect class="cls-12" x="82.71" y="304.01" width="39.94" height="26.28" rx="10.21"/><path class="cls-12" d="M82.71,317.15v-23.9s.42,8.89,14.37,10.76"/><ellipse class="cls-2" cx="132.2" cy="174.36" rx="6.05" ry="5.04"/><ellipse class="cls-12" cx="132.2" cy="174.36" rx="4.11" ry="3.42"/><polygon class="cls-12" points="126.44 183.25 132.2 174.36 137.89 183.25 126.44 183.25"/><text class="cls-11" transform="translate(225.26 230.57)">Definir los <tspan x="2.31" y="10.8">recursos, </tspan><tspan x="-7.78" y="21.6">responsables, </tspan><tspan x="-5.91" y="32.4">actividades y </tspan><tspan x="-9.46" y="43.2">calendarios de </tspan><tspan x="1.59" y="54">ejecución</tspan></text><text class="cls-11" transform="translate(281.03 80.01)">Configurar <tspan x="4.51" y="10.8">recursos </tspan><tspan x="-7.51" y="21.6">tecnológicos y </tspan><tspan x="-1.61" y="32.4">formativos, </tspan><tspan x="-0.44" y="43.2">capacitar y </tspan><tspan x="-6.17" y="54">empoderar al </tspan><tspan x="-11.8" y="64.8">talento humano</tspan></text><rect class="cls-13" x="319.65" y="182.86" width="86.12" height="38.59" rx="3.58"/><rect class="cls-4" x="313.25" y="188.33" width="98.92" height="120.41" rx="3.7"/><rect class="cls-2" x="313.25" y="190.52" width="98.92" height="120.41" rx="3.57"/><rect class="cls-4" x="313.25" y="301.95" width="39.94" height="27.03" rx="9.1"/><path class="cls-4" d="M313.25,315.46V289.81S313.57,300,327.52,302"/><rect class="cls-13" x="313.25" y="303.9" width="39.94" height="26.28" rx="10.21"/><path class="cls-13" d="M313.25,317v-23.9s.42,8.89,14.38,10.76"/><ellipse class="cls-2" cx="362.71" cy="174.47" rx="6.05" ry="5.04"/><ellipse class="cls-13" cx="362.71" cy="174.47" rx="4.11" ry="3.42"/><polygon class="cls-13" points="356.99 183.14 362.75 174.25 368.44 183.14 356.99 183.14"/><rect class="cls-14" x="376.27" y="127.24" width="85.73" height="38.59" rx="3.58"/><rect class="cls-4" x="369.9" y="39.95" width="98.47" height="120.41" rx="3.7"/><rect class="cls-2" x="369.9" y="37.76" width="98.47" height="120.41" rx="3.57"/><rect class="cls-4" x="369.9" y="19.72" width="39.9" height="27.03" rx="9.1"/><path class="cls-4" d="M369.9,33.23V58.88s.31-10.16,14.26-12.13"/><rect class="cls-14" x="369.9" y="18.51" width="39.9" height="26.28" rx="10.21"/><path class="cls-14" d="M369.9,31.65v23.9s.42-8.89,14.36-10.76"/><ellipse class="cls-2" cx="419.17" cy="174.44" rx="6.02" ry="5.04"/><ellipse class="cls-14" cx="419.17" cy="174.44" rx="4.09" ry="3.42"/><polygon class="cls-14" points="413.44 165.56 419.17 174.44 424.84 165.56 413.44 165.56"/><text class="cls-15" transform="translate(101.56 211.36)">Factibilidad</text><text class="cls-16" transform="translate(161.65 64.15)">Alineación</text><text class="cls-17" transform="translate(213.77 211.28)">Planificación</text><text class="cls-18" transform="translate(260.78 64.59)">Implementación</text><text class="cls-19" transform="translate(327.66 212.24)">Lanzamiento </text><text class="cls-20" transform="translate(373.98 67.05)">Control y mejora</text><text class="cls-21" transform="translate(40.12 35.79)">1</text><text class="cls-21" transform="translate(97.88 321.86)">2</text><text class="cls-21" transform="translate(156.14 36.05)">3</text><text class="cls-21" transform="translate(213.92 320.96)">4</text><text class="cls-21" transform="translate(271.6 36.2)">5</text><text class="cls-21" transform="translate(329.32 321.6)">6</text><text class="cls-21" transform="translate(386.83 35.86)">7</text><text class="cls-11" transform="translate(399 85.57)">Recopilar <tspan x="-12.69" y="10.8">información de </tspan><tspan x="-8.92" y="21.6">la ejecución y </tspan><tspan x="-19.61" y="32.4">aplicar correctivos </tspan><tspan x="-8.55" y="43.2">y acciones de </tspan><tspan x="-15.49" y="54">mejora continua</tspan></text><text class="cls-11" transform="translate(343.44 231.65)">Informar, <tspan x="-9.47" y="10.8">concientizar y </tspan><tspan x="-9.87" y="21.6">motivar sobre </tspan><tspan x="-8.61" y="32.4">el alcance del </tspan><tspan x="-12.84" y="43.2">programa y sus </tspan><tspan x="-1.55" y="54">beneficios</tspan></text><text class="cls-11" transform="translate(111.26 226.57)">Valorar la <tspan x="-1.02" y="10.8">capacidad </tspan><tspan x="1.64" y="21.6">humana, </tspan><tspan x="-16.48" y="32.4">tecno-sociológica</tspan><tspan x="-7.38" y="43.2" xml:space="preserve"> y económica </tspan><tspan x="5.94" y="54">para la </tspan><tspan x="-14.49" y="64.8">implementación</tspan></text></svg>